<?xml version="1.0" encoding="utf-8"?>
<!-- Generator: Adobe Illustrator 15.0.2, SVG Export Plug-In . SVG Version: 6.00 Build 0)  -->
<!DOCTYPE svg PUBLIC "-//W3C//DTD SVG 1.1//EN" "http://www.w3.org/Graphics/SVG/1.1/DTD/svg11.dtd">
<svg version="1.1"
	 id="svg2" xmlns:inkscape="http://www.inkscape.org/namespaces/inkscape" xmlns:sodipodi="http://sodipodi.sourceforge.net/DTD/sodipodi-0.dtd" xmlns:svg="http://www.w3.org/2000/svg" xmlns:rdf="http://www.w3.org/1999/02/22-rdf-syntax-ns#" xmlns:cc="http://creativecommons.org/ns#" xmlns:dc="http://purl.org/dc/elements/1.1/"
	 xmlns="http://www.w3.org/2000/svg" xmlns:xlink="http://www.w3.org/1999/xlink" x="0px" y="0px" width="16px" height="16px"
	 viewBox="0 0 16 16" enable-background="new 0 0 16 16" xml:space="preserve">
<g id="background">
	<rect fill="none" width="16" height="16"/>
</g>
<g id="image">
	<path fill="#EEEEEC" d="M12.266,5.156h-1.422L9.422,3.734H6.578L5.156,5.156H3.734c0,0-1.422,0-1.422,1.422
		c0,0.759,0,3.345,0,4.266c0,1.422,1.422,1.422,1.422,1.422s7.564,0,8.531,0c1.422,0,1.422-1.422,1.422-1.422s0-2.844,0-4.266
		S12.266,5.156,12.266,5.156z M8,10.844c-1.179,0-2.133-0.954-2.133-2.133c0-1.178,0.954-2.133,2.133-2.133
		c1.176,0,2.133,0.955,2.133,2.133C10.133,9.89,9.176,10.844,8,10.844z"/>
</g>
</svg>
