<?xml version="1.0" encoding="utf-8"?>
<!-- Generator: Adobe Illustrator 15.0.2, SVG Export Plug-In . SVG Version: 6.00 Build 0)  -->
<!DOCTYPE svg PUBLIC "-//W3C//DTD SVG 1.1//EN" "http://www.w3.org/Graphics/SVG/1.1/DTD/svg11.dtd">
<svg version="1.1"
	 id="svg2" xmlns:rdf="http://www.w3.org/1999/02/22-rdf-syntax-ns#" xmlns:dc="http://purl.org/dc/elements/1.1/" xmlns:svg="http://www.w3.org/2000/svg" xmlns:cc="http://creativecommons.org/ns#" xmlns:sodipodi="http://sodipodi.sourceforge.net/DTD/sodipodi-0.dtd" xmlns:inkscape="http://www.inkscape.org/namespaces/inkscape"
	 xmlns="http://www.w3.org/2000/svg" xmlns:xlink="http://www.w3.org/1999/xlink" x="0px" y="0px" width="16px" height="16px"
	 viewBox="0 0 16 16" enable-background="new 0 0 16 16" xml:space="preserve">
<g>
	<path fill="#EEEEEC" d="M6.757,7.097C6.988,7.14,7.205,7.169,7.32,7.169c0.896,0,1.633-0.578,1.633-1.271
		c0-0.549-0.405-0.969-0.939-0.969c-0.549,0-0.867,0.347-0.896,0.982H4.576c0.043-1.777,1.459-3.005,3.497-3.005
		c1.849,0,3.353,1.358,3.353,3.034c0,1.301-0.753,2.182-2.312,2.73v0.91H6.757V7.097z M9.488,11.591
		c0,0.838-0.665,1.503-1.488,1.503c-0.839,0-1.503-0.665-1.503-1.503c0-0.825,0.664-1.489,1.503-1.489
		C8.823,10.102,9.488,10.766,9.488,11.591z"/>
</g>
</svg>
