<?xml version="1.0" encoding="utf-8"?>
<!-- Generator: Adobe Illustrator 15.0.2, SVG Export Plug-In . SVG Version: 6.00 Build 0)  -->
<!DOCTYPE svg PUBLIC "-//W3C//DTD SVG 1.1//EN" "http://www.w3.org/Graphics/SVG/1.1/DTD/svg11.dtd">
<svg version="1.1"
	 id="svg2" xmlns:inkscape="http://www.inkscape.org/namespaces/inkscape" xmlns:sodipodi="http://sodipodi.sourceforge.net/DTD/sodipodi-0.dtd" xmlns:svg="http://www.w3.org/2000/svg" xmlns:rdf="http://www.w3.org/1999/02/22-rdf-syntax-ns#" xmlns:cc="http://creativecommons.org/ns#" xmlns:dc="http://purl.org/dc/elements/1.1/"
	 xmlns="http://www.w3.org/2000/svg" xmlns:xlink="http://www.w3.org/1999/xlink" x="0px" y="0px" width="16px" height="16px"
	 viewBox="0 0 16 16" enable-background="new 0 0 16 16" xml:space="preserve">
<g id="security_x5F_closed">
	<path fill="#EEEEEC" d="M11.077,6.846c-0.004-0.051,0.005-0.883-0.337-1.809c-0.175-0.462-0.443-0.959-0.896-1.362
		C9.397,3.27,8.748,2.994,8,3C7.251,2.994,6.603,3.27,6.155,3.675C5.479,4.286,5.208,5.083,5.064,5.703
		C4.923,6.329,4.923,6.809,4.923,6.846H4.154V13h7.692V6.846H11.077z M6.465,6.754c0.01-0.238,0.083-0.897,0.331-1.399
		C7.071,4.844,7.323,4.558,8,4.538c0.406,0.006,0.622,0.116,0.822,0.288C9.12,5.079,9.335,5.581,9.436,6.042
		C9.487,6.27,9.514,6.48,9.526,6.63c0.012,0.146,0.01,0.215,0.012,0.216H6.461C6.461,6.845,6.461,6.823,6.465,6.754z"/>
</g>
</svg>
