<?xml version="1.0" encoding="utf-8"?>
<!-- Generator: Adobe Illustrator 15.0.2, SVG Export Plug-In . SVG Version: 6.00 Build 0)  -->
<!DOCTYPE svg PUBLIC "-//W3C//DTD SVG 1.1//EN" "http://www.w3.org/Graphics/SVG/1.1/DTD/svg11.dtd">
<svg version="1.1"
	 id="svg2" xmlns:inkscape="http://www.inkscape.org/namespaces/inkscape" xmlns:sodipodi="http://sodipodi.sourceforge.net/DTD/sodipodi-0.dtd" xmlns:svg="http://www.w3.org/2000/svg" xmlns:rdf="http://www.w3.org/1999/02/22-rdf-syntax-ns#" xmlns:cc="http://creativecommons.org/ns#" xmlns:dc="http://purl.org/dc/elements/1.1/"
	 xmlns="http://www.w3.org/2000/svg" xmlns:xlink="http://www.w3.org/1999/xlink" x="0px" y="0px" width="16px" height="16px"
	 viewBox="0 0 16 16" enable-background="new 0 0 16 16" xml:space="preserve">
<g id="security_x5F_closed">
	<path fill="#EEEEEC" d="M12,6.5c-0.004-0.066,0.007-1.148-0.438-2.352c-0.227-0.6-0.576-1.246-1.164-1.771
		C9.816,1.85,8.973,1.492,8,1.5C7.027,1.491,6.184,1.85,5.601,2.377c-0.879,0.794-1.23,1.83-1.418,2.637C4,5.828,4,6.451,4,6.5H3v8
		h10v-8H12z M6.004,6.381c0.013-0.31,0.109-1.167,0.43-1.82C6.793,3.897,7.12,3.525,8,3.499c0.527,0.008,0.809,0.15,1.068,0.374
		c0.388,0.329,0.668,0.982,0.798,1.582c0.067,0.295,0.102,0.57,0.118,0.764C10,6.409,9.997,6.499,10,6.5H6
		C6,6.499,6,6.47,6.004,6.381z"/>
</g>
</svg>
