<?xml version="1.0" encoding="utf-8"?>
<!-- Generator: Adobe Illustrator 15.0.2, SVG Export Plug-In . SVG Version: 6.00 Build 0)  -->
<!DOCTYPE svg PUBLIC "-//W3C//DTD SVG 1.1//EN" "http://www.w3.org/Graphics/SVG/1.1/DTD/svg11.dtd">
<svg version="1.1"
	 id="svg2" xmlns:rdf="http://www.w3.org/1999/02/22-rdf-syntax-ns#" xmlns:dc="http://purl.org/dc/elements/1.1/" xmlns:svg="http://www.w3.org/2000/svg" xmlns:cc="http://creativecommons.org/ns#" xmlns:sodipodi="http://sodipodi.sourceforge.net/DTD/sodipodi-0.dtd" xmlns:inkscape="http://www.inkscape.org/namespaces/inkscape"
	 xmlns="http://www.w3.org/2000/svg" xmlns:xlink="http://www.w3.org/1999/xlink" x="0px" y="0px" width="16px" height="16px"
	 viewBox="0 0 16 16" enable-background="new 0 0 16 16" xml:space="preserve">
<g id="security_x5F_closed">
	<path fill="#EEEEEC" d="M4.154,6.846V13h7.692V6.846H9.538c0.002-0.001,0-0.07,0.013-0.216c0.012-0.15,0.039-0.36,0.09-0.588
		c0.101-0.461,0.315-0.963,0.613-1.216c0.2-0.172,0.416-0.282,0.822-0.288c0.677,0.02,0.93,0.306,1.204,0.817
		c0.248,0.502,0.321,1.161,0.331,1.399c0.004,0.069,0.004,0.091,0.004,0.092h1.538c0-0.037,0-0.517-0.142-1.143
		c-0.144-0.62-0.414-1.417-1.09-2.028C12.473,3.27,11.825,2.994,11.076,3C10.328,2.994,9.68,3.27,9.232,3.675
		c-0.453,0.403-0.721,0.9-0.896,1.362C7.994,5.963,8.003,6.795,7.999,6.846H4.154z"/>
</g>
</svg>
