<?xml version="1.0" encoding="utf-8"?>
<!-- Generator: Adobe Illustrator 15.0.2, SVG Export Plug-In . SVG Version: 6.00 Build 0)  -->
<!DOCTYPE svg PUBLIC "-//W3C//DTD SVG 1.1//EN" "http://www.w3.org/Graphics/SVG/1.1/DTD/svg11.dtd">
<svg version="1.1" xmlns="http://www.w3.org/2000/svg" xmlns:xlink="http://www.w3.org/1999/xlink" x="0px" y="0px" width="80px"
	 height="48px" viewBox="0 48 80 48" enable-background="new 0 48 80 48" xml:space="preserve">
<g id="REP">
	<g>
	</g>
</g>
<g id="BG_1_" display="none">
	<circle display="inline" fill="#CCCCCC" cx="8.5" cy="56.5" r="8"/>
	<circle display="inline" fill="#CCCCCC" cx="24.5" cy="56.5" r="8"/>
	<circle display="inline" fill="#CCCCCC" cx="40.5" cy="56.5" r="8"/>
	<circle display="inline" fill="#CCCCCC" cx="56.5" cy="56.5" r="8"/>
	<circle display="inline" fill="#CCCCCC" cx="72.5" cy="56.5" r="8"/>
	<circle display="inline" fill="#CCCCCC" cx="8.5" cy="72.5" r="8"/>
	<circle display="inline" fill="#CCCCCC" cx="24.5" cy="72.5" r="8"/>
	<circle display="inline" fill="#CCCCCC" cx="40.5" cy="72.5" r="8"/>
	<circle display="inline" fill="#CCCCCC" cx="56.5" cy="72.5" r="8"/>
	<circle display="inline" fill="#CCCCCC" cx="72.5" cy="72.5" r="8"/>
	<circle display="inline" fill="#CCCCCC" cx="8.5" cy="88.5" r="8"/>
	<circle display="inline" fill="#CCCCCC" cx="24.5" cy="88.5" r="8"/>
	<circle display="inline" fill="#CCCCCC" cx="40.5" cy="88.5" r="8"/>
	<circle display="inline" fill="#CCCCCC" cx="56.5" cy="88.5" r="8"/>
	<circle display="inline" fill="#CCCCCC" cx="72.5" cy="88.5" r="8"/>
</g>
<g id="ICONS_1_">
	<g id="REPERES">
	</g>
	<g id="BG" display="none">
		<circle display="inline" fill="#B3B3B3" cx="8" cy="8" r="8"/>
		<circle display="inline" fill="#B3B3B3" cx="24" cy="8" r="8"/>
		<circle display="inline" fill="#B3B3B3" cx="40" cy="8" r="8"/>
		<circle display="inline" fill="#B3B3B3" cx="56" cy="8" r="8"/>
		<circle display="inline" fill="#B3B3B3" cx="72" cy="8" r="8"/>
		<circle display="inline" fill="#B3B3B3" cx="8" cy="24" r="8"/>
		<circle display="inline" fill="#B3B3B3" cx="24" cy="24" r="8"/>
		<circle display="inline" fill="#B3B3B3" cx="40" cy="24" r="8"/>
		<circle display="inline" fill="#B3B3B3" cx="56" cy="24" r="8"/>
		<circle display="inline" fill="#B3B3B3" cx="72" cy="24" r="8"/>
		<circle display="inline" fill="#B3B3B3" cx="8" cy="40" r="8"/>
		<circle display="inline" fill="#B3B3B3" cx="24" cy="40" r="8"/>
		<circle display="inline" fill="#B3B3B3" cx="40" cy="40" r="8"/>
		<circle display="inline" fill="#B3B3B3" cx="56" cy="40" r="8"/>
		<circle display="inline" fill="#B3B3B3" cx="72" cy="40" r="8"/>
	</g>
	<path fill="#FFFFFF" d="M58.313,51.732c0.431,0,0.855,0.206,1.119,0.59c0.422,0.615,0.266,1.461-0.35,1.885l-3.515,2.413
		l3.459,2.14c0.637,0.393,0.832,1.228,0.438,1.865c-0.391,0.637-1.225,0.836-1.864,0.441l-5.228-3.232
		c-0.39-0.24-0.632-0.66-0.641-1.119c-0.014-0.458,0.209-0.891,0.586-1.148l5.227-3.591C57.782,51.811,58.049,51.732,58.313,51.732z
		"/>
	<path fill="#FFFFFF" d="M61.269,75.112c0,0.431-0.206,0.855-0.59,1.119c-0.615,0.422-1.461,0.266-1.884-0.35l-2.414-3.515
		l-2.141,3.459c-0.391,0.637-1.227,0.832-1.864,0.438c-0.638-0.391-0.835-1.225-0.44-1.864l3.23-5.228
		c0.241-0.39,0.662-0.632,1.12-0.641c0.458-0.014,0.891,0.209,1.149,0.586l3.59,5.227C61.19,74.581,61.269,74.848,61.269,75.112z"/>
	<path fill="#FFFFFF" d="M67.731,69.888c0-0.431,0.206-0.855,0.59-1.119c0.615-0.422,1.461-0.266,1.884,0.35l2.414,3.515
		l2.141-3.459c0.391-0.637,1.227-0.832,1.864-0.438c0.638,0.391,0.835,1.225,0.44,1.864l-3.23,5.228
		c-0.241,0.39-0.662,0.632-1.12,0.641c-0.458,0.014-0.891-0.209-1.149-0.586l-3.59-5.227C67.81,70.419,67.731,70.152,67.731,69.888z
		"/>
	<path fill="#FFFFFF" d="M70.687,61.27c-0.431,0-0.855-0.206-1.119-0.59c-0.422-0.615-0.266-1.461,0.35-1.885l3.515-2.413
		l-3.459-2.14c-0.637-0.393-0.832-1.228-0.438-1.865c0.391-0.637,1.225-0.836,1.864-0.441l5.228,3.232
		c0.39,0.24,0.632,0.66,0.641,1.119c0.014,0.458-0.209,0.891-0.586,1.148l-5.227,3.591C71.218,61.191,70.951,61.27,70.687,61.27z"/>
	<g id="New_Symbol_217">
		<polygon fill="#FFFFFF" points="13.977,53.438 11.562,51.023 8.5,54.085 5.438,51.023 3.023,53.438 6.085,56.5 3.023,59.562 
			5.438,61.977 8.5,58.916 11.562,61.977 13.977,59.562 10.917,56.5 		"/>
	</g>
	<g id="New_Symbol_125">
		<path fill="#FFFFFF" d="M22.702,61.719l-3.65-4.117c-0.375-0.424-0.295-1.04,0.183-1.375c0.477-0.334,1.168-0.262,1.546,0.162
			l1.85,2.088l5.564-6.792c0.358-0.437,1.047-0.536,1.539-0.216c0.491,0.318,0.599,0.932,0.24,1.368L22.702,61.719L22.702,61.719z"
			/>
	</g>
	<g>
		<path fill="#FFFFFF" d="M34.504,55.148c0-0.994-0.033-1.824-0.065-2.541h2.102l0.098,1.092h0.049
			c0.342-0.521,1.059-1.271,2.411-1.271c1.043,0,1.841,0.537,2.183,1.369h0.033c0.311-0.424,0.652-0.75,1.043-0.979
			c0.439-0.244,0.93-0.391,1.516-0.391c1.531,0,2.688,1.075,2.688,3.454v4.692h-2.41v-4.317c0-1.157-0.375-1.825-1.174-1.825
			c-0.586,0-0.977,0.391-1.156,0.863c-0.049,0.18-0.082,0.424-0.082,0.619v4.66h-2.412V56.11c0-0.994-0.358-1.679-1.157-1.679
			c-0.635,0-1.009,0.489-1.157,0.88c-0.081,0.196-0.097,0.424-0.097,0.636v4.627h-2.412V55.148z"/>
	</g>
</g>
</svg>
