<?xml version="1.0" encoding="utf-8"?>
<!-- Generator: Adobe Illustrator 15.0.0, SVG Export Plug-In . SVG Version: 6.00 Build 0)  -->
<!DOCTYPE svg PUBLIC "-//W3C//DTD SVG 1.1//EN" "http://www.w3.org/Graphics/SVG/1.1/DTD/svg11.dtd">
<svg version="1.1" id="Calque_1" xmlns="http://www.w3.org/2000/svg" xmlns:xlink="http://www.w3.org/1999/xlink" x="0px" y="0px"
	 width="50px" height="50px" viewBox="0 0 50 50" enable-background="new 0 0 50 50" xml:space="preserve">
<path fill="#ECEDEC" d="M30.377,41.075c-0.293,0-0.586,0-0.877,0c-0.008,0.296-0.008,0.592-0.005,0.887
	c-0.295,0-0.589,0-0.883,0.002c-0.003,0.29-0.033,0.586,0.025,0.873c0.292,0.056,0.59,0.027,0.882,0.021
	c0.006-0.287,0.014-0.572,0.014-0.856c0.275,0.002,0.551,0.006,0.827-0.015C30.402,41.685,30.388,41.38,30.377,41.075z"/>
<path fill="#ECEDEC" d="M33.935,43.726c-0.013-0.586-0.004-1.172-0.007-1.759c-0.296-0.011-0.59-0.021-0.883-0.006
	c-0.015,0.593-0.009,1.185-0.009,1.774c0.295,0.004,0.591,0.002,0.887,0.008c0.008,0.593-0.02,1.182,0.012,1.769
	c0.293,0.015,0.584,0.008,0.875,0c0.009-0.593,0.005-1.182-0.001-1.774C34.516,43.731,34.228,43.728,33.935,43.726z"/>
<g>
	<path fill="#555854" d="M38,9v23H11V9H38 M39,8H10v25h29V8L39,8z"/>
</g>
<path fill="#0000FF" d="M31.512,11.005l0.216,4.69h-0.547c-0.107-0.826-0.25-1.416-0.434-1.771c-0.3-0.57-0.696-0.99-1.191-1.261
	c-0.496-0.269-1.148-0.405-1.956-0.405h-2.757v15.279c0,1.231,0.13,1.998,0.39,2.304c0.365,0.412,0.928,0.617,1.689,0.617h0.679
	v0.547h-8.3v-0.547h0.693c0.827,0,1.414-0.256,1.76-0.767c0.211-0.315,0.318-1.032,0.318-2.154V12.258h-2.353
	c-0.915,0-1.564,0.068-1.948,0.206c-0.501,0.188-0.93,0.546-1.286,1.078c-0.356,0.53-0.567,1.248-0.636,2.153h-0.548l0.232-4.69
	H31.512z"/>
<g>
	<g>
		<line fill="none" stroke="#00FF00" stroke-width="2" stroke-miterlimit="10" x1="10" y1="0" x2="10" y2="1"/>
		
			<line fill="none" stroke="#00FF00" stroke-width="2" stroke-miterlimit="10" stroke-dasharray="2,2" x1="10" y1="3" x2="10" y2="48"/>
		<line fill="none" stroke="#00FF00" stroke-width="2" stroke-miterlimit="10" x1="10" y1="49" x2="10" y2="50"/>
	</g>
</g>
<g>
	<g>
		<line fill="none" stroke="#FF0000" stroke-width="2" stroke-miterlimit="10" x1="39" y1="0" x2="39" y2="1"/>
		
			<line fill="none" stroke="#FF0000" stroke-width="2" stroke-miterlimit="10" stroke-dasharray="2,2" x1="39" y1="3" x2="39" y2="48"/>
		<line fill="none" stroke="#FF0000" stroke-width="2" stroke-miterlimit="10" x1="39" y1="49" x2="39" y2="50"/>
	</g>
</g>
</svg>
