<?xml version="1.0" encoding="utf-8"?>
<!-- Generator: Adobe Illustrator 15.0.0, SVG Export Plug-In . SVG Version: 6.00 Build 0)  -->
<!DOCTYPE svg PUBLIC "-//W3C//DTD SVG 1.1//EN" "http://www.w3.org/Graphics/SVG/1.1/DTD/svg11.dtd">
<svg version="1.1" id="Calque_1" xmlns="http://www.w3.org/2000/svg" xmlns:xlink="http://www.w3.org/1999/xlink" x="0px" y="0px"
	 width="50px" height="50px" viewBox="0 0 50 50" enable-background="new 0 0 50 50" xml:space="preserve">
<line fill="none" stroke="#B8BBB4" stroke-miterlimit="10" x1="5.5" y1="42" x2="5.5" y2="7"/>
<line fill="none" stroke="#B8BBB4" stroke-miterlimit="10" x1="18.5" y1="0" x2="18.5" y2="50"/>
<line fill="none" stroke="#B8BBB4" stroke-miterlimit="10" x1="31.5" y1="50" x2="31.5" y2="0"/>
<line fill="none" stroke="#B8BBB4" stroke-miterlimit="10" x1="44.5" y1="7" x2="44.5" y2="42"/>
<line fill="none" stroke="#B8BBB4" stroke-miterlimit="10" x1="5" y1="9.5" x2="45" y2="9.5"/>
<line fill="none" stroke="#B8BBB4" stroke-miterlimit="10" x1="0" y1="19.5" x2="50" y2="19.5"/>
<line fill="none" stroke="#B8BBB4" stroke-miterlimit="10" x1="50" y1="30.5" x2="0" y2="30.5"/>
<line fill="none" stroke="#B8BBB4" stroke-miterlimit="10" x1="5" y1="40.5" x2="45" y2="40.5"/>
<circle fill="none" stroke="#FFFFFF" stroke-miterlimit="10" cx="25" cy="25" r="10"/>
<circle fill="none" stroke="#FFFFFF" stroke-miterlimit="10" cx="25" cy="25" r="5"/>
<circle fill="none" stroke="#FFFFFF" stroke-miterlimit="10" cx="25" cy="25" r="15"/>
<line fill="none" stroke="#FFFFFF" stroke-width="2" stroke-miterlimit="10" x1="25" y1="22" x2="25" y2="7"/>
<line fill="none" stroke="#FFFFFF" stroke-width="2" stroke-miterlimit="10" x1="25" y1="43" x2="25" y2="28"/>
<line fill="none" stroke="#FFFFFF" stroke-width="2" stroke-miterlimit="10" x1="28" y1="25" x2="43" y2="25"/>
<line fill="none" stroke="#FFFFFF" stroke-width="2" stroke-miterlimit="10" x1="7" y1="25" x2="22" y2="25"/>
</svg>
