<?xml version="1.0" encoding="utf-8"?>
<!-- Generator: Adobe Illustrator 15.0.0, SVG Export Plug-In . SVG Version: 6.00 Build 0)  -->
<!DOCTYPE svg PUBLIC "-//W3C//DTD SVG 1.1//EN" "http://www.w3.org/Graphics/SVG/1.1/DTD/svg11.dtd">
<svg version="1.1" id="Calque_1" xmlns="http://www.w3.org/2000/svg" xmlns:xlink="http://www.w3.org/1999/xlink" x="0px" y="0px"
	 width="50px" height="50px" viewBox="0 0 50 50" enable-background="new 0 0 50 50" xml:space="preserve">
<g>
	<rect x="8" y="14" fill="#B8BBB4" width="6" height="3"/>
	<rect x="16" y="14" fill="#B8BBB4" width="36" height="3"/>
	<rect x="8" y="9" fill="#B8BBB4" width="6" height="3"/>
	<rect x="16" y="9" fill="#B8BBB4" width="36" height="3"/>
	<rect x="8" y="19" fill="#B8BBB4" width="6" height="3"/>
	<rect x="16" y="19" fill="#B8BBB4" width="36" height="3"/>
	<rect x="8" y="24" fill="#B8BBB4" width="6" height="3"/>
	<rect x="16" y="24" fill="#B8BBB4" width="36" height="3"/>
	<rect x="8" y="29" fill="#B8BBB4" width="6" height="3"/>
	<rect x="16" y="29" fill="#B8BBB4" width="36" height="3"/>
	<rect x="8" y="34" fill="#B8BBB4" width="6" height="3"/>
	<rect x="16" y="34" fill="#B8BBB4" width="36" height="3"/>
	<rect x="8" y="39" fill="#B8BBB4" width="6" height="3"/>
	<rect x="16" y="39" fill="#B8BBB4" width="36" height="3"/>
	<rect x="8" y="44" fill="#B8BBB4" width="6" height="3"/>
	<rect x="16" y="44" fill="#B8BBB4" width="36" height="3"/>
	<rect x="8" y="49" fill="#B8BBB4" width="6" height="3"/>
	<rect x="16" y="49" fill="#B8BBB4" width="36" height="3"/>
</g>
<path fill="none" stroke="#FFFFFF" stroke-width="3" stroke-linecap="round" stroke-linejoin="round" stroke-miterlimit="10" d="
	M23.174,30.777c-0.648,0-1.304-0.068-1.942-0.207c-2.394-0.516-4.441-1.93-5.768-3.98c-1.325-2.052-1.771-4.495-1.255-6.881
	c0.906-4.177,4.669-7.209,8.951-7.209c0.646,0,1.303,0.071,1.94,0.208c4.94,1.064,8.09,5.937,7.022,10.861
	C31.218,27.747,27.455,30.777,23.174,30.777z"/>
<line fill="none" stroke="#FFFFFF" stroke-width="3" stroke-linecap="round" stroke-linejoin="round" stroke-miterlimit="10" x1="28.271" y1="30.368" x2="36" y2="41.5"/>
</svg>
