<?xml version="1.0" encoding="utf-8"?>
<!-- Generator: Adobe Illustrator 15.0.0, SVG Export Plug-In . SVG Version: 6.00 Build 0)  -->
<!DOCTYPE svg PUBLIC "-//W3C//DTD SVG 1.1//EN" "http://www.w3.org/Graphics/SVG/1.1/DTD/svg11.dtd">
<svg version="1.1" id="Calque_1" xmlns="http://www.w3.org/2000/svg" xmlns:xlink="http://www.w3.org/1999/xlink" x="0px" y="0px"
	 width="50px" height="50px" viewBox="0 0 50 50" enable-background="new 0 0 50 50" xml:space="preserve">
<g>
	<rect x="7" y="13" fill="#555854" width="6" height="3"/>
	<rect x="15" y="13" fill="#555854" width="36" height="3"/>
	<rect x="7" y="8" fill="#555854" width="6" height="3"/>
	<rect x="15" y="8" fill="#555854" width="36" height="3"/>
	<rect x="7" y="18" fill="#555854" width="6" height="3"/>
	<rect x="15" y="18" fill="#555854" width="36" height="3"/>
	<rect x="7" y="23" fill="#555854" width="6" height="3"/>
	<rect x="15" y="23" fill="#555854" width="36" height="3"/>
	<rect x="7" y="28" fill="#555854" width="6" height="3"/>
	<rect x="15" y="28" fill="#555854" width="36" height="3"/>
	<rect x="7" y="33" fill="#555854" width="6" height="3"/>
	<rect x="15" y="33" fill="#555854" width="36" height="3"/>
	<rect x="7" y="38" fill="#555854" width="6" height="3"/>
	<rect x="15" y="38" fill="#555854" width="36" height="3"/>
	<rect x="7" y="43" fill="#555854" width="6" height="3"/>
	<rect x="15" y="43" fill="#555854" width="36" height="3"/>
	<rect x="7" y="48" fill="#555854" width="6" height="3"/>
	<rect x="15" y="48" fill="#555854" width="36" height="3"/>
</g>
<path fill="none" stroke="#FFFFFF" stroke-width="3" stroke-linecap="round" stroke-linejoin="round" stroke-miterlimit="10" d="
	M22.174,29.778c-0.649,0-1.304-0.069-1.943-0.208c-2.393-0.516-4.441-1.929-5.767-3.98c-1.325-2.052-1.771-4.495-1.255-6.881
	c0.906-4.177,4.669-7.209,8.951-7.209c0.646,0,1.303,0.071,1.941,0.208c4.94,1.064,8.089,5.937,7.022,10.861
	C30.218,26.747,26.455,29.778,22.174,29.778z"/>
<line fill="none" stroke="#FFFFFF" stroke-width="3" stroke-linecap="round" stroke-linejoin="round" stroke-miterlimit="10" x1="27.271" y1="29.368" x2="35" y2="40.5"/>
</svg>
