<?xml version="1.0" encoding="utf-8"?>
<!-- Generator: Adobe Illustrator 15.0.0, SVG Export Plug-In . SVG Version: 6.00 Build 0)  -->
<!DOCTYPE svg PUBLIC "-//W3C//DTD SVG 1.1//EN" "http://www.w3.org/Graphics/SVG/1.1/DTD/svg11.dtd">
<svg version="1.1" id="Calque_1" xmlns="http://www.w3.org/2000/svg" xmlns:xlink="http://www.w3.org/1999/xlink" x="0px" y="0px"
	 width="50px" height="50px" viewBox="0 0 50 50" enable-background="new 0 0 50 50" xml:space="preserve">
<g>
	<g>
		<line fill="none" stroke="#B8BBB4" stroke-width="2" stroke-miterlimit="10" x1="50" y1="10" x2="49" y2="10"/>
		
			<line fill="none" stroke="#B8BBB4" stroke-width="2" stroke-miterlimit="10" stroke-dasharray="2,2" x1="47" y1="10" x2="2" y2="10"/>
		<line fill="none" stroke="#B8BBB4" stroke-width="2" stroke-miterlimit="10" x1="1" y1="10" x2="0" y2="10"/>
	</g>
</g>
<g>
	<g>
		<line fill="none" stroke="#B8BBB4" stroke-width="2" stroke-miterlimit="10" x1="50" y1="34" x2="49" y2="34"/>
		
			<line fill="none" stroke="#B8BBB4" stroke-width="2" stroke-miterlimit="10" stroke-dasharray="2,2" x1="47" y1="34" x2="2" y2="34"/>
		<line fill="none" stroke="#B8BBB4" stroke-width="2" stroke-miterlimit="10" x1="1" y1="34" x2="0" y2="34"/>
	</g>
</g>
<g>
	<g>
		<line fill="none" stroke="#B8BBB4" stroke-width="2" stroke-miterlimit="10" x1="36" y1="48" x2="36" y2="47"/>
		
			<line fill="none" stroke="#B8BBB4" stroke-width="2" stroke-miterlimit="10" stroke-dasharray="2,2" x1="36" y1="45" x2="36" y2="0"/>
		<line fill="none" stroke="#B8BBB4" stroke-width="2" stroke-miterlimit="10" x1="36" y1="-1" x2="36" y2="-2"/>
	</g>
</g>
<g>
	<g>
		<line fill="none" stroke="#B8BBB4" stroke-width="2" stroke-miterlimit="10" x1="8" y1="48" x2="8" y2="47"/>
		
			<line fill="none" stroke="#B8BBB4" stroke-width="2" stroke-miterlimit="10" stroke-dasharray="2,2" x1="8" y1="45" x2="8" y2="0"/>
		<line fill="none" stroke="#B8BBB4" stroke-width="2" stroke-miterlimit="10" x1="8" y1="-1" x2="8" y2="-2"/>
	</g>
</g>
<rect x="9" y="11" fill="#ECEDEC" width="26" height="22"/>
<polygon fill="#2F3436" points="23,13 21,13 14,13 14,18 15,18 16,15 21,15 21,28 20,29 18,29 18,31 26,31 26,29 24,29 23,28 23,15 
	28,15 29,18 30,18 30,13 "/>
<polygon fill="#FFFFFF" points="34,39 35,39 38,39 38,38 37,38 37,37 36,37 36,36 35,36 35,35 34,35 34,34 33,34 33,33 32,33 32,32 
	31,32 31,31 30,31 30,30 29,30 29,29 28,29 28,43 29,43 29,42 30,42 30,41 31,41 31,40 32,40 32,41 33,41 33,43 34,43 34,45 36,45 
	36,43 35,43 35,41 34,41 "/>
<g>
	<rect x="29" y="29" fill="#2F3436" width="1" height="1"/>
	<rect x="30" y="30" fill="#2F3436" width="1" height="1"/>
	<rect x="31" y="31" fill="#2F3436" width="1" height="1"/>
	<rect x="32" y="32" fill="#2F3436" width="1" height="1"/>
	<rect x="33" y="33" fill="#2F3436" width="1" height="1"/>
	<rect x="34" y="34" fill="#2F3436" width="1" height="1"/>
	<rect x="35" y="35" fill="#2F3436" width="1" height="1"/>
	<rect x="36" y="36" fill="#2F3436" width="1" height="1"/>
	<rect x="37" y="37" fill="#2F3436" width="1" height="1"/>
	<rect x="31" y="40" fill="#2F3436" width="1" height="1"/>
	<rect x="30" y="41" fill="#2F3436" width="1" height="1"/>
	<rect x="29" y="42" fill="#2F3436" width="1" height="1"/>
	<polygon fill="#2F3436" points="38,38 38,39 35,39 34,39 34,41 35,41 35,40 38,40 39,40 39,38 	"/>
	<rect x="35" y="41" fill="#2F3436" width="1" height="2"/>
	<rect x="36" y="43" fill="#2F3436" width="1" height="2"/>
	<rect x="32" y="41" fill="#2F3436" width="1" height="2"/>
	<rect x="33" y="43" fill="#2F3436" width="1" height="2"/>
	<rect x="34" y="45" fill="#2F3436" width="2" height="1"/>
	<polygon fill="#2F3436" points="28,29 29,29 29,28 28,28 28,27 27,27 27,43 27,44 29,44 29,43 28,43 	"/>
</g>
</svg>
